# xmcd
#
# Track frame offsets:
# 150
# 22559
# 35620
# 55631
# 77060
# 104415
# 124137
# 143264
# 165933
# 184622
# 203277
# 221824
# 243144
# 259643
# 275517
# 293437
# 318321
#
# Disc length: 4414 seconds
#
#
# Revision: 0
# Processed by: cddbd v1.5.2PL0 Copyright (c) Steve Scherf et al.
# Submitted via: FreeRIP 2.951 
#
DISCID=d2113c11
DTITLE=VALE 97'5 - VALE 97'5
DYEAR=2007
DGENRE=Latin
TTITLE0=el amor de mi vida RICKY MARTIN
TTITLE1=dia de enero SHAKIRA
TTITLE2=color esperanza DIEGO TORRES
TTITLE3=dejaria todo CHAYANNE
TTITLE4=carnaval toda la vida LOS FABULOSOS CADILLACS
TTITLE5=juntos para siempre ALEJANDRO LERNER CON CARLOS MELLINO
TTITLE6=esos locos bajitos JOAN MANUEL SERRAT
TTITLE7=con la frente marchita JOAQUIN SABINA
TTITLE8=entra en mi vida SIN BANDERA
TTITLE9=sin ti DONATO Y ESTEFANO
TTITLE10=la playa LA OREJA DE VAN GOGH
TTITLE11=vivir sin aire NIÑA PASTORI
TTITLE12=yo quisiera REIK
TTITLE13=amo AXEL
TTITLE14=cuando acaba el placer SO PRA CONTRARIAR
TTITLE15=la aurora EROS RAMAZOTTI
TTITLE16=por mirarte ANDRES CALAMARO
EXTD=
EXTT0=
EXTT1=
EXTT2=
EXTT3=
EXTT4=
EXTT5=
EXTT6=
EXTT7=
EXTT8=
EXTT9=
EXTT10=
EXTT11=
EXTT12=
EXTT13=
EXTT14=
EXTT15=
EXTT16=
PLAYORDER=
